<svg xmlns="http://www.w3.org/2000/svg" width="59.34" height="94.811" viewBox="0 0 59.34 94.811">
    <g>
        <g>
            <path d="M33.736 2.714c-.6.4-1.412.5-1.916 1.008a.756.756 0 0 0 0 1.21 1.967 1.967 0 0 0 1.311-.1.553.553 0 0 0 .4-.605 2.718 2.718 0 0 0 .807-.706c.407-.404-.098-1.211-.602-.807z" transform="rotate(42 21.546 35.067) translate(0 2.604) translate(-26.325 -2.604)"/>
            <path d="M6.189 39.048a13.764 13.764 0 0 0-1.714 1.714 3.945 3.945 0 0 0-1.109 2.118c0 .4.5.605.706.3.5-.5.605-1.311 1.008-1.916a8.516 8.516 0 0 1 1.513-1.815c.201-.3-.202-.603-.404-.401z" transform="rotate(42 21.546 35.067) translate(0 2.604) translate(-2.811 -32.989)"/>
            <path d="M.958 80.019a10.991 10.991 0 0 1-.3-2.622.253.253 0 0 0-.5 0c0 1.21-.605 3.63.605 4.437.2.2.5-.1.5-.3a8.039 8.039 0 0 0-.305-1.515z" transform="rotate(42 21.546 35.067) translate(0 2.604) translate(0 -61.803)"/>
            <path d="M16.015 116.042c-1.613.2-3.025.5-4.538-.3-.2-.1-.3.1-.1.2 1.513 1.109 3.227 1.613 4.941.706.403-.202 0-.707-.303-.606z" transform="rotate(42 21.546 35.067) translate(0 2.604) translate(-9.41 -92.67)"/>
            <path d="M61.839 85.687a9.691 9.691 0 0 0-2.118 1.413 20.164 20.164 0 0 0-2.221 1.914c-.2.2.1.605.4.4a15.031 15.031 0 0 1 2.023-1.514 17.176 17.176 0 0 0 2.218-1.513c.303-.297.101-.902-.302-.7z" transform="rotate(42 21.546 35.067) translate(0 2.604) translate(-45.324 -68.588)"/>
            <path d="M100.287 41.748a14.824 14.824 0 0 0-4.84 3.832.286.286 0 0 0 .4.4 25.818 25.818 0 0 1 2.622-2.017 16.072 16.072 0 0 0 2.118-1.512c.305-.401.002-.804-.3-.703z" transform="rotate(42 21.546 35.067) translate(0 2.604) translate(-75.227 -35.285)"/>
            <path d="M152.115 19.134a13.3 13.3 0 0 0-5.243 1.21.259.259 0 0 0 .1.5 22.74 22.74 0 0 1 5.143-.807c.505-.096.505-.903 0-.903z" transform="rotate(42 21.546 35.067) translate(0 2.604) translate(-115.635 -16.402)"/>
            <path d="M207.179 30.021a14.6 14.6 0 0 0-1.815-1.714.5.5 0 0 0-.706.706c.5.5 1.008 1.109 1.512 1.714a10.71 10.71 0 0 0 1.714 2.017.421.421 0 0 0 .605-.5 3.662 3.662 0 0 0-1.31-2.223z" transform="rotate(42 21.546 35.067) translate(0 2.604) translate(-161.539 -23.962)"/>
            <path d="M222.542 70.894c0-.4-.706-.4-.706 0a29.512 29.512 0 0 1-.5 2.924 12.865 12.865 0 0 0-.706 2.823.473.473 0 0 0 .908.2 12.193 12.193 0 0 0 1.004-5.947z" transform="rotate(42 21.546 35.067) translate(0 2.604) translate(-174.606 -56.483)"/>
            <path d="M192.136 133.292l-1.513 2.117a6.845 6.845 0 0 0-1.21 2.218c0 .4.4.5.706.4.706-.3 1.008-1.21 1.311-1.815.5-.807.908-1.714 1.412-2.521a.407.407 0 0 0-.706-.399z" transform="rotate(42 21.546 35.067) translate(0 2.604) translate(-149.68 -106.187)"/>
            <path d="M157.8 178.571a12.842 12.842 0 0 0-2.218 2.521c-.6.908-1.412 2.218-1.21 3.327a.484.484 0 0 0 .908.2 10.727 10.727 0 0 0 .908-2.521 11 11 0 0 1 1.916-3.328c.196-.098-.104-.401-.304-.199z" transform="rotate(42 21.546 35.067) translate(0 2.604) translate(-121.918 -142.028)"/>
            <path d="M123.407 238.34a10.2 10.2 0 0 0-2.218 2.823 6.444 6.444 0 0 0-1.109 3.731.445.445 0 0 0 .807.1c.6-.908.6-2.118 1.008-3.126a11.856 11.856 0 0 1 1.916-3.227c.201-.201-.101-.604-.404-.301z" transform="rotate(42 21.546 35.067) translate(0 2.604) translate(-94.828 -189.252)"/>
            <path d="M124.28 309.907a3.787 3.787 0 0 1-2.521-4.235.253.253 0 0 0-.5 0c-.2 1.916.2 5.243 2.823 5.143.4-.101.602-.706.198-.908z" transform="rotate(42 21.546 35.067) translate(0 2.604) translate(-95.802 -241.863)"/>
            <path d="M167.2 347.71c-1.109-.1-2.218.1-3.327.1a7.28 7.28 0 0 1-3.832-1.311c-.2-.1-.3.2-.2.3 2.118 1.613 5.042 3.025 7.663 1.916a.548.548 0 0 0-.304-1.005z" transform="rotate(42 21.546 35.067) translate(0 2.604) translate(-125.658 -276.136)"/>
            <path d="M232.325 312.1c-.706.4-1.311 1.008-2.118 1.512a6.206 6.206 0 0 1-2.319.706c-.5.1-.5.807 0 .807 1.815.1 4.134-.5 5.143-2.218.404-.507-.202-1.007-.706-.807z" transform="rotate(42 21.546 35.067) translate(0 2.604) translate(-179.375 -247.383)"/>
            <path d="M263.05 274.867a21.271 21.271 0 0 0-3.63 4.336c-.3.5.4.807.706.4 1.109-1.412 2.924-2.42 3.731-4.134.1-.501-.404-1.005-.807-.602z" transform="rotate(42 21.546 35.067) translate(0 2.604) translate(-204.722 -218.57)"/>
            <path d="M305.363 267.534a3.739 3.739 0 0 0-1.714-1.311 5.916 5.916 0 0 0-2.319-.4.354.354 0 1 0 0 .706 4.171 4.171 0 0 1 1.916.5c.5.3.908.807 1.412 1.109a.484.484 0 0 0 .705-.604z" transform="rotate(42 21.546 35.067) translate(0 2.604) translate(-235.883 -212.018)"/>
            <path d="M329.775 260.337c-1.412-2.319-2.319-4.941-3.529-7.361-.605-1.109-2.218-.1-1.714 1.008a47.662 47.662 0 0 0 2.924 6.05c-.908.1-1.815.2-2.823.3-.4.1-1.109.1-1.412.5l-.1.1a.1.1 0 0 0-.1.1.386.386 0 0 0 .2.6c.1.1.2.1.4.1a8.62 8.62 0 0 0 1.613 0 24.309 24.309 0 0 1 3.832-.1c.608.114 1.012-.692.709-1.297z" transform="rotate(42 21.546 35.067) translate(0 2.604) translate(-254.245 -197.636)"/>
        </g>
    </g>
</svg>