<svg xmlns="http://www.w3.org/2000/svg" width="90.277" height="82.992" viewBox="0 0 90.277 82.992">
    <g>
        <path d="M36.295 92.69l49-26.339-1.018 4.172a1.322 1.322 0 1 0 2.569.627l1.721-7.056a1.327 1.327 0 0 0-.971-1.6l-7.056-1.721a1.322 1.322 0 0 0-.627 2.569l3.706.9-48.577 26.119a1.322 1.322 0 1 0 1.252 2.33z" transform="translate(-28.29 -53.67)"/>
        <path d="M85.534 94.165h-3.292v-51.48a3.184 3.184 0 0 0-3.181-3.185h-5.35v-6.939H85a2.095 2.095 0 0 0 1.6-3.441l-2.1-2.509 2.106-2.511A2.095 2.095 0 0 0 85 20.661H72.389a1.322 1.322 0 0 0-1.322 1.322V39.5h-5.35a3.184 3.184 0 0 0-3.181 3.181v2.868a1.322 1.322 0 1 0 2.645 0v-2.864a.536.536 0 0 1 .536-.536h13.344a.536.536 0 0 1 .536.536v51.48H65.181v-42.4a1.322 1.322 0 0 0-2.645 0v42.4h-7.544V61.187a3.184 3.184 0 0 0-3.181-3.181H38.466a3.184 3.184 0 0 0-3.181 3.181v32.978h-7.543V77.423a3.184 3.184 0 0 0-3.181-3.181H11.216a3.184 3.184 0 0 0-3.181 3.181v2.895a1.322 1.322 0 0 0 2.645 0v-2.895a.536.536 0 0 1 .536-.536h13.345a.536.536 0 0 1 .536.536v16.742H10.681v-7.69a1.322 1.322 0 1 0-2.645 0v7.691H4.744a4.744 4.744 0 0 0 0 9.487h80.79a4.744 4.744 0 0 0 0-9.487zm-3.357-66.207l1.644 1.958h-10.11v-6.61h10.11l-1.644 1.958a2.091 2.091 0 0 0 0 2.694zM37.931 61.187a.536.536 0 0 1 .536-.536h13.344a.536.536 0 0 1 .536.536v32.978H37.931V61.187zm47.6 39.821H4.744a2.1 2.1 0 0 1 0-4.2h80.79a2.1 2.1 0 0 1 0 4.2z" transform="translate(0 -20.661)"/>
    </g>
</svg>
