<svg xmlns="http://www.w3.org/2000/svg" width="89.74" height="89.771" viewBox="0 0 89.74 89.771">
    <path d="M86.061 40.3a41.055 41.055 0 0 0-5.606-19.876C83.325 6.7 68.811-4.466 56.31 1.776A40.493 40.493 0 0 0 20.019 8.5a1.315 1.315 0 0 0 1.6 2.086 38.437 38.437 0 0 1 31.79-6.991 17.144 17.144 0 0 0-2.795 2.733C30.165 2.833 10.7 18.646 9.766 39.192a10.437 10.437 0 0 0-3.232.307A37.76 37.76 0 0 1 15.78 16.11a1.315 1.315 0 0 0-1.961-1.751 40.51 40.51 0 0 0-9.945 26.379 8.744 8.744 0 0 0-3.786 7.2v12.7c0 5.614 4.78 8.877 9.96 8.747a4.971 4.971 0 0 0 9.69-1.537v-27.57a4.99 4.99 0 0 0-6.945-4.556A32.759 32.759 0 0 1 48.97 8.748a17.1 17.1 0 0 0 2.913 20.37v3.569a1.315 1.315 0 0 0 1.826 1.213l3.2-1.352a17.1 17.1 0 0 0 18.509-3.138 32.253 32.253 0 0 1 1.735 6.325 4.99 4.99 0 0 0-6.974 4.543v27.573a4.984 4.984 0 0 0 7.368 4.349c-.007 1.162-.028 2.323-.073 3.473a8.406 8.406 0 0 1-6.921 7.539 37.183 37.183 0 0 1-4.16.137 5.1 5.1 0 0 0-4.911-3.752H54.5a5.089 5.089 0 0 0 0 10.178h6.98a5.1 5.1 0 0 0 4.922-3.8 26.7 26.7 0 0 0 4.527-.164 11.129 11.129 0 0 0 9.234-9.957v-.052c.091-2.287.022-4.6 0-6.865 5.081.246 9.663-3.457 9.663-8.747v-12.7a8.744 8.744 0 0 0-3.765-7.19zM2.717 60.641v-12.7c0-3.832 3.373-6.326 6.995-6.118v24.936c-3.624.201-6.995-2.274-6.995-6.118zm12.054-22.7a2.34 2.34 0 0 1 2.337 2.337v27.573a2.337 2.337 0 0 1-4.675 0V40.278a2.34 2.34 0 0 1 2.337-2.337zm46.711 49.2H54.5a2.46 2.46 0 1 1 0-4.92h6.98a2.46 2.46 0 0 1 .002 4.921zm21.9-48.094a10.438 10.438 0 0 0-3.235-.307 34.935 34.935 0 0 0-2.778-11.5 17 17 0 0 0 1.976-3.352 38.438 38.438 0 0 1 4.039 15.16zm-19.574-7.67a14.224 14.224 0 0 1-6.3-1.45 1.315 1.315 0 0 0-1.089-.03l-1.912.808v-2.15a1.314 1.314 0 0 0-.425-.968C44.516 18.8 50.8 2.653 63.808 2.66c19.052.788 19.047 27.931 0 28.717zM87.2 60.19c0 3.874-3.42 6.338-7.064 6.118q-.025-2.119-.023-4.238a1.315 1.315 0 0 0-2.629 0v5.781a2.337 2.337 0 0 1-4.675 0V40.278a2.337 2.337 0 0 1 4.675 0v14.793a1.315 1.315 0 0 0 2.629 0V41.37c3.653-.207 7.087 2.21 7.087 6.118z" transform="translate(-.088)"/>
    <path d="M175.159 237.285a1.315 1.315 0 0 0 1.826-1.211v-4.292c12.594-12.245 3.807-33.883-13.786-33.86a19.76 19.76 0 0 0-19.739 19.736c-.167 14.119 15.058 23.95 27.845 18zm-4.459-4.248c-11.116 5.6-24.764-2.92-24.611-15.38a17.128 17.128 0 0 1 17.11-17.107c15.5-.007 22.985 19.235 11.581 29.7a1.314 1.314 0 0 0-.424.968v2.875l-2.567-1.085a1.315 1.315 0 0 0-1.089.029z" transform="translate(-118.33 -163.231)"/>
    <path d="M230.029 263.585h7.032a1.315 1.315 0 0 0 0-2.629h-7.032a1.315 1.315 0 0 0 0 2.629z" transform="translate(-188.675 -215.217)"/>
    <path d="M237.062 345.09h-7.032a1.315 1.315 0 0 0 0 2.629h7.032a1.315 1.315 0 0 0 0-2.629z" transform="translate(-188.676 -284.605)"/>
    <path d="M223.121 303.023h-14.556a1.315 1.315 0 0 0 0 2.629h14.556a1.315 1.315 0 0 0 0-2.629z" transform="translate(-170.973 -249.911)"/>
    <path d="M337.327 39.856a5.669 5.669 0 0 0-5.73 5.614 1.315 1.315 0 0 0 2.629 0 3.053 3.053 0 0 1 3.048-2.985 2.986 2.986 0 0 1-.062 5.971 1.315 1.315 0 0 0-1.315 1.315v4.5a1.315 1.315 0 0 0 2.629 0v-3.34a5.614 5.614 0 0 0-1.2-11.071z" transform="translate(-273.492 -32.87)"/>
    <path d="M357.658 140.331a1.315 1.315 0 0 0 0 2.629 1.315 1.315 0 0 0 0-2.629z" transform="translate(-293.938 -115.735)"/>
</svg>
