<svg xmlns="http://www.w3.org/2000/svg" width="89.635" height="89.771" viewBox="0 0 89.635 89.771">
    <g>
        <g>
            <path d="M2.988 77.684v-5.976h2.988V68.72H2.988v-5.976h5.975v-2.987H2.988v-5.976h2.988v-2.988H2.988v-5.976h5.975V41.83H2.988v-5.976h2.988v-2.988H2.988V26.89h5.975V23.9H2.988v-5.973h2.988v-2.988H2.988V8.963h5.975V5.976H2.988V0H0v79.178a1.494 1.494 0 0 0 1.494 1.494h88.141v-2.988z"/>
            <path d="M0 0H3.627V6.347H0z" transform="translate(14.508 83.424)"/>
            <path d="M0 0H2.72V6.347H0z" transform="translate(20.856 83.424)"/>
            <path d="M0 0H2.72V6.347H0z" transform="translate(36.271 83.424)"/>
            <path d="M0 0H2.72V6.347H0z" transform="translate(41.712 83.424)"/>
            <path d="M0 0H2.72V6.347H0z" transform="translate(57.127 83.424)"/>
            <path d="M0 0H2.72V6.347H0z" transform="translate(62.568 83.424)"/>
            <path d="M0 0H2.72V6.347H0z" transform="translate(77.983 83.424)"/>
            <path d="M0 0H3.627V6.347H0z" transform="translate(83.424 83.424)"/>
            <path d="M74.6 190.463a6 6 0 0 0 9.239-5.023 5.9 5.9 0 0 0-.735-2.812l11.96-8.971a5.936 5.936 0 0 0 8.835-1.643l9.828 2.819c0 .049-.01.1-.01.149a5.976 5.976 0 0 0 11.951 0v-.01a5.976 5.976 0 0 0-1.213-3.554l13.3-16.615a5.917 5.917 0 0 0 2.856.759 6.021 6.021 0 1 0-5.046-2.807l-13.445 16.807a5.74 5.74 0 0 0-.747-.285 5.976 5.976 0 0 0-6.794 2.689l-9.831-2.809c0-.049.01-.1.01-.149a6 6 0 0 0-4.3-5.767 5.941 5.941 0 0 0-7.171 8.018l-12.205 9.159a5.976 5.976 0 1 0-6.482 10.045zm66.005-43.863a2.988 2.988 0 1 1-2.988 2.988 2.988 2.988 0 0 1 2.988-2.988zm-23.783 27.578a2.961 2.961 0 1 1-.12.8 2.628 2.628 0 0 1 .12-.802zm-20.915-6.034a2.988 2.988 0 0 1 5.856.856v.021a2.628 2.628 0 0 1-.12.8 2.988 2.988 0 0 1-5.737-1.672zm-18.046 14.31a2.988 2.988 0 1 1-2.988 2.988 2.988 2.988 0 0 1 2.988-2.99z" transform="translate(-58.44 -116.72)"/>
            <path d="M77.976 84.71a5.949 5.949 0 0 0 4.432-9.946l14.657-23.235a5.719 5.719 0 0 0 5.435-.929l11.839 9.313a5.959 5.959 0 0 0 5.465 8.376h.013a5.965 5.965 0 0 0 5.741-7.574l10.765-6.31a5.976 5.976 0 0 0 4.4 1.939h.022a5.985 5.985 0 1 0-6-5.976 6.139 6.139 0 0 0 .178 1.4l-10.859 6.354a5.987 5.987 0 0 0-4.258-1.782h-.016a5.911 5.911 0 0 0-3.585 1.24l-11.845-9.321a5.976 5.976 0 1 0-9.822 1.677L79.918 73.11a5.9 5.9 0 0 0-1.942-.351 5.976 5.976 0 1 0 0 11.951zm62.744-37.348a2.993 2.993 0 0 1 .01 5.986h-.01a2.988 2.988 0 0 1-2.592-1.494 3.207 3.207 0 0 1-.4-1.5 2.988 2.988 0 0 1 2.992-2.992zm-20.915 11.962a2.988 2.988 0 1 1-2.988 2.988 2.988 2.988 0 0 1 2.988-2.988zM98.89 42.881a2.988 2.988 0 1 1-2.99 2.987 2.988 2.988 0 0 1 2.99-2.987zM77.976 75.747a2.988 2.988 0 1 1-2.988 2.988 2.988 2.988 0 0 1 2.988-2.988z" transform="translate(-58.555 -32.423)"/>
        </g>
    </g>
</svg>
