<svg xmlns="http://www.w3.org/2000/svg" width="81.71" height="81.716" viewBox="0 0 81.71 81.716">
    <g>
        <path d="M57.372 50.061a13.074 13.074 0 0 0 2.5-7.635A1.362 1.362 0 0 0 58.578 41a1.385 1.385 0 0 0-1.426 1.3 10.429 10.429 0 0 1-1.916 6.074c-2.657 3.356-7.7 3.526-8.684 3.526a1.362 1.362 0 0 0 0 2.724c1.2 0 7.383-.219 10.82-4.558z" transform="translate(16.355 13.477)"/>
        <path d="M38.533 45.791h2.724a6.818 6.818 0 0 0 6.81-6.81 1.362 1.362 0 0 0-2.724 0 4.086 4.086 0 0 1-4.086 4.086h-2.724a4.086 4.086 0 0 1-4.086-4.086h4.086a1.362 1.362 0 0 0 0-2.724h-4.085v-2.724h4.086a1.362 1.362 0 0 0 0-2.724h-4.086a4.086 4.086 0 0 1 4.086-4.086h2.724a4.086 4.086 0 0 1 4.086 4.086 1.362 1.362 0 1 0 2.724 0A6.818 6.818 0 0 0 41.257 24h-2.724a6.818 6.818 0 0 0-6.81 6.81h-1.361a1.362 1.362 0 0 0 0 2.724h1.362v2.724h-1.362a1.362 1.362 0 0 0 0 2.724h1.362a6.818 6.818 0 0 0 6.809 6.809z" transform="translate(10.496 7.325)"/>
        <path d="M80.576 46.994C77.221 32.733 69.76 24.47 64.372 20.154c6.756.509 8.931 3.32 9 3.4a1.362 1.362 0 0 0 2.255-1.527c-.1-.147-1.99-2.849-7.491-4.086a6.247 6.247 0 0 0 2.278-4.689A6.993 6.993 0 0 0 65.2 6.914a24.843 24.843 0 0 0 .183-2.965 2.724 2.724 0 0 0-3.787-2.5 7.781 7.781 0 0 0-1.9 1.216 3.511 3.511 0 0 1-2.547 1.062 3.515 3.515 0 0 1-2.543-1.062 6.265 6.265 0 0 0-8.5 0 3.581 3.581 0 0 1-5.091 0 7.793 7.793 0 0 0-1.89-1.215 2.724 2.724 0 0 0-3.782 2.5c0 3.388.67 9.433 4.912 13.491a37.573 37.573 0 0 0-6.213 4.727V11.9c0-3.105-4.392-5.448-10.214-5.448S13.619 8.79 13.619 11.9v13.717c-4.776.477-8.171 2.622-8.171 5.346V65.6C2.157 66.487 0 68.279 0 70.458v6.81c0 3.105 4.392 5.448 10.214 5.448 5.207 0 9.261-1.875 10.06-4.494a15.3 15.3 0 0 0 7.644 1.77c5.822 0 10.214-2.342 10.214-5.448v-17.7c0-3.105-4.392-5.448-10.214-5.448a20.208 20.208 0 0 0-2.043.1V30.962c0-2.983-4.054-5.254-9.533-5.43v-9.865a15.509 15.509 0 0 0 7.491 1.677 15.509 15.509 0 0 0 7.491-1.677v9.288c-.9 1-1.8 2.1-2.688 3.309a1.362 1.362 0 0 0 2.2 1.608 41.284 41.284 0 0 1 2.808-3.4c.011-.012.02-.025.031-.035a35.8 35.8 0 0 1 9.039-7.244 8.643 8.643 0 0 0 2.1.7L41.3 23.164a1.362 1.362 0 1 0 1.86 1.991l5.448-5.081h.434v4.086a1.362 1.362 0 0 0 2.724 0v-4.093h.434l5.448 5.081a1.362 1.362 0 0 0 1.86-1.991l-3.534-3.29a8.58 8.58 0 0 0 2.088-.7c3.6 1.948 15.432 9.642 19.864 28.452 1.927 8.188 1.233 14.451-2.063 18.612-4.217 5.317-11.533 5.589-12.956 5.589H43.581a1.362 1.362 0 0 0 0 2.724h19.326S73.128 74.066 78 67.921c3.835-4.847 4.7-11.888 2.576-20.927zm-70.362 20.74c4.5 0 7.491 1.634 7.491 2.724s-2.987 2.724-7.491 2.724-7.491-1.634-7.491-2.724 2.988-2.724 7.491-2.724zm0 12.257c-4.5 0-7.491-1.634-7.491-2.724v-3.038a15.509 15.509 0 0 0 7.491 1.677 15.51 15.51 0 0 0 7.486-1.677v3.038c0 1.09-2.982 2.724-7.486 2.724zm17.7-2.724c-4.5 0-7.491-1.634-7.491-2.724V60.61a15.509 15.509 0 0 0 7.491 1.677 15.51 15.51 0 0 0 7.496-1.677v13.934c0 1.089-2.987 2.724-7.491 2.724zm7.496-20.428c0 1.09-2.987 2.724-7.491 2.724s-7.491-1.634-7.491-2.724 2.987-2.724 7.491-2.724 7.491 1.634 7.491 2.724zm-17.7 0v9.848a15.509 15.509 0 0 0-7.491-1.677 20.208 20.208 0 0 0-2.043.1V34.734a15.51 15.51 0 0 0 7.491 1.677 15.51 15.51 0 0 0 7.491-1.677v17.25c-3.296.883-5.458 2.676-5.458 4.855zm5.448-25.876c0 1.09-2.987 2.724-7.491 2.724s-7.491-1.634-7.491-2.724 2.987-2.724 7.491-2.724 7.486 1.634 7.486 2.723zm.681-16.343c-4.5 0-7.491-1.634-7.491-2.724s2.987-2.724 7.491-2.724 7.491 1.634 7.491 2.724-2.993 2.723-7.496 2.723zm43.854-1.362c0 2.232-2.417 4.064-5.448 4.086a7.033 7.033 0 0 1-1.506-.173 16.136 16.136 0 0 0 3.978-7.531 4.173 4.173 0 0 1 2.97 3.618zM39.316 4.786a6.261 6.261 0 0 0 8.5 0 3.585 3.585 0 0 1 5.094 0 6.141 6.141 0 0 0 4.251 1.662 6.146 6.146 0 0 0 4.251-1.662 5.7 5.7 0 0 1 1.249-.839c0 2.529-.47 8.782-4.858 12.21a5.841 5.841 0 0 1-3.418 1.17 29.457 29.457 0 0 0 2.78-6.43 1.363 1.363 0 0 0-2.626-.73 24.984 24.984 0 0 1-3.439 7.176h-1.4a25.22 25.22 0 0 1-3.436-7.176 1.362 1.362 0 1 0-2.624.731 29.477 29.477 0 0 0 2.782 6.435 5.856 5.856 0 0 1-3.489-1.175c-4.388-3.427-4.858-9.679-4.858-12.2a5.326 5.326 0 0 1 1.243.828z" transform="translate(0 -.999)"/>
        <path d="M57.372 50.061a13.074 13.074 0 0 0 2.5-7.635A1.362 1.362 0 0 0 58.578 41a1.38 1.38 0 0 0-1.426 1.3 10.429 10.429 0 0 1-1.916 6.074c-2.657 3.356-7.7 3.526-8.684 3.526a1.362 1.362 0 1 0 0 2.724c1.2 0 7.383-.219 10.82-4.558z" transform="translate(16.355 13.477)"/>
    </g>
</svg>
