<svg xmlns="http://www.w3.org/2000/svg" width="147.273" height="142.542" viewBox="0 0 147.273 142.542">
    <defs>
        <style>
            .cls-1{fill:#fff}
        </style>
    </defs>
    <g id="right-arrow_Icon" transform="rotate(-37 24.239 61.394)">
        <path id="Path_1" d="M115.3 112.513a2.406 2.406 0 0 0-.524-.784L85.907 82.857a2.406 2.406 0 0 0-3.4 3.4l24.767 24.767H60.149A55.4 55.4 0 0 1 4.812 55.689a2.406 2.406 0 1 0-4.812 0 60.217 60.217 0 0 0 60.149 60.149h47.123L82.51 140.6a2.406 2.406 0 0 0 3.343 3.461l.059-.059 28.872-28.872a2.406 2.406 0 0 0 .524-2.623z" class="cls-1"/>
        <path id="Path_2" d="M365.057 243.948a2.406 2.406 0 0 1-1.7-4.109l27.173-27.168-27.176-27.171a2.406 2.406 0 0 1 3.4-3.4l28.872 28.872a2.406 2.406 0 0 1 0 3.4l-28.872 28.872a2.406 2.406 0 0 1-1.697.704z" class="cls-1" transform="translate(-280.849 -99.238)"/>
        <path id="Path_3" d="M113.08 115.838H60.149A60.217 60.217 0 0 1 0 55.689a2.406 2.406 0 0 1 4.812 0 55.4 55.4 0 0 0 55.337 55.337h52.931a2.406 2.406 0 1 1 0 4.812z" class="cls-1"/>
    </g>
</svg>
