<svg xmlns="http://www.w3.org/2000/svg" width="72.62" height="94.103" viewBox="0 0 72.62 94.103">
    <path d="M59.323 52.946a1.344 1.344 0 0 1-1.192-1.963c.609-1.178 1.136-2.3 1.613-3.433a1.344 1.344 0 0 1 2.482 1.032c-.5 1.2-1.055 2.392-1.7 3.638a1.344 1.344 0 0 1-1.2.726z" transform="translate(6.534 13.409)"/>
    <path d="M46.3 96.1a1.358 1.358 0 0 1-.606-.144C23.338 84.676 9.99 65.749 9.99 45.327v-27.2a1.345 1.345 0 0 1 1.481-1.338c13.294 1.369 24.667-3.45 33.8-14.316A1.344 1.344 0 0 1 46.287 2a1.325 1.325 0 0 1 1.026.46c8.021 9.175 19.454 13.994 33.987 14.328a1.344 1.344 0 0 1 1.313 1.344v22.141a1.344 1.344 0 0 1-2.689 0V19.436c-14.092-.585-25.382-5.31-33.6-14.063C37.1 15.751 25.8 20.526 12.679 19.6v25.727c0 19.2 12.555 37.075 33.621 47.921a69.233 69.233 0 0 0 23.358-19 1.345 1.345 0 1 1 2.136 1.633 72.19 72.19 0 0 1-24.888 20.078 1.358 1.358 0 0 1-.606.144z" transform="translate(-9.99 -2)"/>
    <path d="M62.667 43.752a1.275 1.275 0 0 1-.269-.027 1.344 1.344 0 0 1-1.055-1.581c.269-1.305.473-2.639.629-3.966a1.344 1.344 0 1 1 2.67.313c-.164 1.4-.387 2.8-.663 4.179a1.344 1.344 0 0 1-1.312 1.081z" transform="translate(7.683 10.048)"/>
    <path d="M44.345 84.548a1.336 1.336 0 0 1-.659-.173c-17.546-9.862-28.02-25.429-28.02-41.644v-19.64a1.344 1.344 0 0 1 1.284-1.344 41.058 41.058 0 0 0 26.644-11.389 1.344 1.344 0 0 1 1.781-.042 48.693 48.693 0 0 0 26.458 10.829 1.344 1.344 0 0 1 1.192 1.335v20.249c0 16.215-10.475 31.784-28.025 41.646a1.336 1.336 0 0 1-.659.173zM18.356 24.359V42.73c0 15.028 9.7 29.532 25.99 38.922 16.29-9.393 25.991-23.9 25.991-38.927V23.668A51.241 51.241 0 0 1 44.55 13.12a43.516 43.516 0 0 1-26.194 11.239z" transform="translate(-8.035 .754)"/>
    <path d="M34.914 51.549a1.344 1.344 0 0 1-.95-.394l-7.57-7.57a1.344 1.344 0 1 1 1.9-1.9l6.619 6.622L53.28 29.936a1.345 1.345 0 1 1 1.9 1.9L35.865 51.155a1.344 1.344 0 0 1-.95.394z" transform="translate(-4.477 7.483)"/>
</svg>
